<svg width="448" height="448" viewBox="0 0 448 448" fill="none" xmlns="http://www.w3.org/2000/svg">
<path fill-rule="evenodd" clip-rule="evenodd" d="M200.416 0.524248C192.704 1.23225 173.326 4.91125 163.916 7.45325C112.853 21.2472 66.2962 55.4953 35.6282 101.821C16.6842 130.438 4.70521 164.471 0.85021 200.626C-0.873789 216.8 0.137211 248.063 2.86221 262.821C11.5262 309.74 32.9522 350.372 66.3192 383.156C103.899 420.079 149.27 441.59 200.797 446.913C218.559 448.748 248.325 447.606 264.916 444.453C310.79 435.736 350.689 414.476 383.251 381.399C401.823 362.533 414.485 344.714 425.941 321.321C442.168 288.185 448.748 256.246 447.649 215.94C446.684 180.561 439.099 150.975 423.262 120.821C400.569 77.6143 364.985 43.0042 321.416 21.7652C298.548 10.6172 274.324 3.65825 248.705 0.876249C239.705 -0.101751 209.62 -0.320752 200.416 0.524248ZM320.06 122.857C340.007 124.853 351.407 129.285 361.484 138.962C371.713 148.784 375.887 158.611 375.905 172.914C375.918 183.413 373.728 190.42 367.785 198.893C359.464 210.755 349.676 215.697 318.918 223.568C301.505 228.024 295.229 229.189 285.916 229.696L274.416 230.321L274.526 263.821C274.587 282.246 274.699 304.634 274.776 313.571L274.916 329.821H287.084C308.264 329.821 320.555 326.235 329.281 317.509C337.392 309.397 340.625 300.538 341.573 283.821C342.559 266.434 339.208 252.027 332.3 243.956C330.087 241.371 329.361 239.868 330.176 239.563C330.858 239.308 338.234 238.063 346.568 236.798C364.691 234.046 365.33 234.198 374.602 243.47C384.265 253.133 388.881 263.962 388.904 277.022C388.963 310.137 363.043 331.804 317.232 336.934C309.721 337.775 281.662 338.172 225.416 338.233L144.416 338.321L135.513 335.968C106.645 328.338 90.7832 311.8 83.7492 281.997C81.8482 273.941 81.6432 268.673 80.8882 208.321C79.9912 136.635 80.1192 137.962 73.6942 133.995C71.8912 132.882 68.2542 131.428 65.6132 130.764C61.0502 129.617 60.8242 129.4 61.1132 126.439L61.4162 123.321H103.916H146.416L146.724 125.986C147.012 128.475 146.657 128.736 141.342 129.925C134.423 131.473 130.195 134.186 127.47 138.824C125.446 142.271 125.421 143.243 125.763 206.321C126.129 273.715 126.534 280.536 130.85 291.966C134.977 302.896 143.707 311.668 154.664 315.894C162.653 318.976 180.757 319.745 189.942 317.394C208.189 312.722 218.201 303.554 225.19 285.114C227.357 279.398 227.39 278.446 227.722 213.321C227.958 167.006 227.723 145.78 226.934 142.154C225.479 135.466 222.22 132.277 214.527 130.011C208.447 128.22 206.999 126.652 208.3 123.263C208.772 122.034 216.287 121.821 259.279 121.821C287.013 121.821 314.364 122.287 320.06 122.857ZM273.82 131.47C273.472 134.564 274.182 220.443 274.561 221.056C275.228 222.134 294.262 221.998 301.179 220.866C315.856 218.462 325.248 210.931 329.187 198.406C331.092 192.352 331.416 189.065 331.416 175.821C331.416 156.415 329.472 148.88 322.452 141.072C315.09 132.884 310.646 131.477 290.666 131.011C281.454 130.795 273.873 131.002 273.82 131.47Z" fill="black"/>
</svg>
