<svg width="244" height="14" viewBox="0 0 244 14" fill="none" xmlns="http://www.w3.org/2000/svg">
<path d="M12.225 9.75425C0.882495 8.04823 2.7185 9.15849 2.9635 8.48266C2.15689 8.17322 1.34844 7.96104 0.07959 7.54425C1.01886 6.98081 1.60454 6.70161 2.30808 6.32766C2.19391 6.22787 1.96555 6.0283 1.85324 5.83124C1.9711 5.73649 2.20687 5.547 2.32288 5.54952C5.79987 5.81967 9.29907 4.9226 12.7761 5.19275C16.3691 5.46542 19.9639 5.64082 23.5662 5.42715C26.4723 5.19836 29.2587 5.16158 32.1611 5.12732C33.0893 5.14749 33.7744 5.74622 34.8278 5.28257C35.6474 4.91114 36.9181 5.23066 37.9623 5.25335C39.1225 5.27855 40.2827 5.30376 41.443 5.32896C42.4872 5.35164 43.5314 5.37433 44.5756 5.39701C45.6198 5.4197 46.664 5.44238 47.7082 5.46506C47.8242 5.46759 47.8261 5.37032 48.1797 5.08608C47.1373 4.96613 46.327 4.85122 45.5167 4.73631C45.5186 4.63904 45.5204 4.54177 45.5223 4.4445C46.5665 4.46719 47.7286 4.39513 48.7728 4.41782C49.933 4.44302 51.0932 4.46823 52.2535 4.49343C52.4855 4.49847 52.7176 4.5035 52.8317 4.60329C53.966 5.99024 55.246 5.82343 56.8833 5.17784C57.4689 4.89864 58.3916 5.21061 59.0877 5.22573C68.9497 5.43997 78.9276 5.65673 88.7896 5.87097C89.8338 5.89365 91.1008 6.40771 92.0475 5.4552C92.0475 5.4552 92.2795 5.46024 92.3955 5.46276C93.3071 6.35833 94.2593 5.11402 95.0641 5.52073C95.9811 6.1245 96.5631 6.03984 97.5005 5.57366C97.7363 5.38417 98.4269 5.6911 98.8873 5.89571C99.4618 6.20012 99.4563 6.49193 98.8706 6.77113C98.9848 6.87092 99.0971 7.06796 99.2132 7.07048C99.4452 7.07552 99.6772 7.08056 99.7933 7.08308C100.031 6.79632 100.038 6.40726 100.274 6.21777C100.628 5.93352 101.097 5.6518 101.561 5.66188C102.257 5.677 103.176 6.18351 103.76 6.00157C104.58 5.63015 105.158 5.74002 105.965 6.04946C106.541 6.2566 107.363 5.7879 108.175 5.80555C111.075 5.86856 114.092 5.93409 116.992 5.9971C117.333 6.39373 117.56 6.69058 117.784 7.08469C118.138 6.80045 118.607 6.51872 119.313 6.04751C120.595 5.78343 122.665 6.80148 123.974 5.07839C124.315 5.47503 124.657 5.77439 125 6.07375C127.563 5.5456 129.886 5.49874 132.309 6.23254C134.88 5.31532 137.416 6.24617 139.976 5.91255C139.967 6.39889 139.724 6.97744 139.84 6.97997C140.762 7.29193 140.661 6.51127 140.902 6.02998C141.947 6.05266 143.107 6.07786 144.267 6.10307C144.39 5.71652 144.628 5.42976 144.75 5.14048C144.864 5.24026 145.096 5.24532 145.21 5.3451C145.775 6.13585 146.814 6.45032 147.632 6.17616C149.503 5.43835 151.468 5.87027 153.442 5.81585C155.068 5.75387 156.807 5.88895 158.439 5.53516C157.396 5.41521 156.47 5.29778 155.427 5.17783C157.752 5.0337 160.208 4.01669 161.915 5.80531C163.079 5.63598 164.127 5.46413 165.056 5.4843C168.072 5.54983 171.089 5.61536 174.105 5.68089C174.347 5.1996 174.468 4.91031 174.593 4.42649C175.045 5.11745 175.499 5.61386 175.954 6.11028C176.199 5.43445 176.678 4.66639 177.597 5.17289C178.514 5.77666 179.102 5.40019 180.034 5.22582C181.663 4.96931 183.4 5.20165 185.03 4.94514C184.22 4.83023 183.409 4.71532 182.599 4.6004C182.719 4.40839 182.838 4.21638 182.955 4.2189C185.275 4.26931 187.597 4.22245 189.916 4.37013C191.654 4.5052 193.268 5.12409 195.012 4.96737C195.244 4.97241 195.594 4.88269 195.831 4.59593C195.021 4.48102 194.095 4.36359 193.282 4.34595C195.955 4.20938 198.52 3.58396 201.172 4.51734C202.325 4.93161 203.839 4.67258 205.236 4.41102C204.658 4.30115 204.08 4.19128 203.504 3.98414C203.621 3.88939 203.743 3.60012 203.743 3.60012C204.787 3.6228 205.831 3.64548 206.876 3.66817C207.433 4.84798 208.279 3.1148 209.192 3.91311C209.763 4.41205 210.946 3.27004 212.089 4.17065C212.66 4.66959 214.292 4.31582 215.459 3.95195C214.649 3.83704 213.839 3.72213 213.029 3.60722C213.264 3.41773 213.384 3.2257 213.5 3.22822C215.124 3.26351 216.633 3.29627 218.257 3.33156C221.391 3.30235 224.408 3.36789 227.434 2.94708C229.064 2.69056 230.688 2.72585 232.2 2.56408C233.594 2.49706 234.88 2.03844 235.488 0.592032C236.068 0.604634 237.232 0.435305 237.344 0.632359C237.789 1.61512 239.18 1.74264 239.513 2.52834C239.846 3.31404 240.307 3.51865 240.996 3.92284C242.491 4.63648 242.813 6.00579 241.975 7.34989C242.432 7.74904 242.772 8.14567 243.231 8.44756C243.227 8.64209 243.224 8.83663 243.106 8.93138C241.923 10.0734 240.522 10.5295 238.662 10.6837C235.523 10.9074 232.492 11.62 229.361 11.4547C227.486 12.3871 225.525 11.7606 223.549 11.9123C222.039 11.9768 220.525 12.2358 219.015 12.3003C217.505 12.3648 215.888 11.9405 214.604 12.3018C212.737 12.8451 210.882 12.7075 209.144 12.5724C206.827 12.3275 204.722 13.1575 202.403 13.0098C200.083 12.9594 197.654 12.5174 195.44 12.9559C191.132 13.6408 186.854 12.7694 182.668 13.165C177.436 13.6352 172.226 12.9381 167.11 13.4108C160.25 14.0403 153.3 13.3054 146.451 13.3513C145.638 13.3336 144.71 13.3135 143.898 13.2958C143.202 13.2807 142.393 13.0685 141.916 13.7393C141.585 12.8563 140.754 13.8114 140.066 13.4072C139.723 13.1078 138.668 13.6687 137.856 13.6511C137.042 13.7307 136.115 13.6133 135.303 13.5956C134.607 13.5805 133.795 13.5629 133.099 13.5478C132.287 13.5301 131.358 13.51 130.546 13.4923C129.734 13.4747 128.806 13.4545 127.994 13.4369C127.298 13.4217 126.485 13.4041 125.789 13.389C124.977 13.3713 124.047 13.4484 123.237 13.3335C122.194 13.2136 121.261 13.4852 120.228 12.8789C119.769 12.577 118.596 13.2327 117.668 13.2125C114.997 13.2518 112.447 13.0991 109.778 13.0412C108.85 13.021 107.697 12.6067 106.868 13.4645C106.277 14.0355 105.959 12.4716 105.13 13.3294C104.892 13.6162 103.5 13.5859 103.388 13.3889C102.596 12.3013 101.636 13.9347 101.069 13.2412C100.275 12.2509 99.673 13.4055 98.9787 13.2931C98.6306 13.2855 98.1684 13.1782 97.8222 13.0733C97.1279 12.961 96.0911 12.5492 95.8553 12.7387C95.0265 13.5965 93.999 12.6984 93.0634 13.0673C92.1278 13.4362 90.7411 13.1141 89.6969 13.0914C69.0448 12.6428 48.3927 12.1942 27.7406 11.7455C24.9561 11.685 22.1826 11.0409 19.4937 12.0529C18.12 11.05 16.7073 12.0897 15.3151 12.0594C10.9099 11.7691 6.49916 11.7706 1.74222 11.6673C1.86564 11.2807 1.99277 10.6997 2.22482 10.7047C4.43296 10.558 6.64663 10.1196 8.96524 10.2673C13.6043 10.4654 18.2471 10.4689 22.888 10.5697C23.004 10.5722 23.2398 10.3827 23.3576 10.288C23.1274 10.1857 22.8973 10.0834 22.7831 9.98361C22.2048 9.87374 21.7518 9.28005 21.0427 9.9458C20.923 10.1378 20.2306 9.92816 19.7665 9.91807C13.6136 9.97903 7.46435 9.84544 12.225 9.75425C23.249 9.89642 23.2472 9.99368 23.2453 10.0909C24.1698 10.3056 25.2085 10.6201 26.1329 10.8348C26.7112 10.9447 29.9617 10.918 30.5418 10.9306C31.0059 10.9407 31.5823 11.1478 31.702 10.9558C32.5309 10.098 33.6837 10.5123 34.6119 10.5325C49.5788 10.8576 64.5458 11.1828 79.5127 11.5079C80.4409 11.5281 81.3765 11.1592 82.1739 11.9549C82.2881 12.0547 82.8663 12.1646 82.9842 12.0698C83.929 11.2146 85.196 11.7287 86.2421 11.6541C88.4502 11.5074 90.7614 12.0442 92.9807 11.3139C93.5645 11.132 94.6031 11.4465 95.2956 11.6561C96.7983 11.9807 98.3029 12.208 99.8223 11.6572C100.29 11.4727 100.971 12.266 101.45 11.4979C102.246 12.391 103.642 12.2267 104.344 11.95C105.513 11.4889 106.307 12.4792 107.358 12.1128C107.592 12.0206 107.822 12.1229 107.942 11.9309C108.415 11.4546 108.878 11.562 109.568 11.8689C110.259 12.1758 111.301 12.2958 112.001 12.1164C112.935 11.8447 113.983 11.6729 114.677 11.7853C115.717 12.0025 116.651 11.7308 117.695 11.7535C125.473 11.7279 133.121 12.3806 140.909 11.7713C146.721 11.3137 152.508 12.2179 158.438 11.6655C163.788 11.1006 169.224 12.0945 174.692 11.4348C178.996 10.9444 183.39 11.8184 187.698 11.1335C189.678 10.7873 191.873 11.3215 193.965 11.1723C195.939 11.1179 197.79 11.45 199.774 10.9093C201.641 10.366 203.952 10.9027 206.043 10.8508C206.391 10.8584 206.741 10.7687 206.974 10.6765C206.518 10.2773 206.17 10.2698 205.822 10.2622C202.107 10.2788 198.396 10.1009 194.674 10.5066C190.138 10.9919 185.628 10.1154 180.974 10.6955C176.668 11.2831 172.282 10.0201 167.969 10.9968C167.385 11.1787 166.827 9.99892 166.228 10.959C165.549 10.0685 164.95 11.0285 164.254 11.0134C159.031 10.9973 153.819 10.3975 148.698 11.162C148 11.2442 146.954 11.3187 146.611 11.0194C145.696 10.3183 145.211 11.3782 144.519 11.1685C143.826 10.9589 143.011 11.1358 142.314 11.1207C138.138 11.0299 133.845 10.9367 129.668 10.8459C128.624 10.8232 127.355 10.4065 126.41 11.2617C126.292 11.3564 125.718 11.052 125.371 10.9472C124.909 10.8399 124.101 10.6277 123.983 10.7224C123.39 11.3907 123.053 10.7995 122.591 10.6922C122.128 10.5848 121.537 11.1558 120.957 11.1432C120.029 11.1231 119.093 11.492 118.298 10.5989C117.707 11.1699 116.78 11.0525 116.084 11.0374C115.272 11.0197 114.34 11.1941 113.773 10.5006C113.178 11.2662 112.255 10.9542 111.443 10.9366C106.222 10.8231 100.887 10.6099 95.664 10.5938C90.4411 10.5776 85.233 9.78333 80.1077 10.7424C79.5368 10.2434 78.6031 10.5151 77.9088 10.4027C76.9825 10.2852 76.0469 10.6542 75.1187 10.634C74.0745 10.6113 72.7927 10.8754 71.8793 10.0771C70.8166 11.0271 69.4336 10.5105 68.2733 10.4853C54.3506 10.1828 40.4278 9.88038 26.5051 9.57792C25.3411 9.74725 24.2969 9.72457 12.225 9.75425Z" fill="black"/>
</svg>
